<svg xmlns="http://www.w3.org/2000/svg" viewBox="0 0 32 32" id="BackUser"><g data-name="Layer 9" fill="#000000" class="color000000 svgShape"><circle cx="18" cy="9" r="4" fill="#6602bf" class="color02abbf svgShape"></circle><path fill="#a555ec" d="M18 5a4 4 0 0 1 0 8Z" class="color0195a6 svgShape"></path><path fill="#6602bf" d="M18 16a9 9 0 0 1 9 9v2H9v-2a9 9 0 0 1 9-9Z" class="color02abbf svgShape"></path><path fill="#a555ec" d="M18 27h9v-2a9 9 0 0 0-9-9Z" class="color0195a6 svgShape"></path><path fill="#6602bf" d="M11 7H8.414l.293-.293a1 1 0 0 0-1.414-1.414l-2 2a1 1 0 0 0 0 1.414l2 2a1 1 0 0 0 1.414-1.414L8.414 9H11a1 1 0 0 0 0-2Z" class="color02abbf svgShape"></path><path d="M18 15A10.011 10.011 0 0 0 8 25v2a1 1 0 0 0 1 1h18a1 1 0 0 0 1-1v-2a10.011 10.011 0 0 0-10-10zm8 11H10v-1a8 8 0 0 1 16 0zm-8-12a5 5 0 1 0-5-5 5.006 5.006 0 0 0 5 5zm0-8a3 3 0 1 1-3 3 3.003 3.003 0 0 1 3-3z" fill="#000000" class="color000000 svgShape"></path></g></svg>